<?xml version="1.0" standalone="no"?>
<!DOCTYPE svg PUBLIC "-//W3C//DTD SVG 1.1//EN" "http://www.w3.org/Graphics/SVG/1.1/DTD/svg11.dtd" >
<svg xmlns="http://www.w3.org/2000/svg">
<metadata>
Created by FontForge 20120731 at Tue Jun 21 13:14:03 2016
 By admin
</metadata>
<defs>
<font id="iconfont" horiz-adv-x="1024" >
  <font-face 
    font-family="iconfont"
    font-weight="500"
    font-stretch="normal"
    units-per-em="1024"
    panose-1="2 0 6 3 0 0 0 0 0 0"
    ascent="896"
    descent="-128"
    x-height="792"
    bbox="0 -148 1192 896"
    underline-thickness="50"
    underline-position="-100"
    unicode-range="U+0078-E663"
  />
<missing-glyph horiz-adv-x="374" 
d="M34 0v682h272v-682h-272zM68 34h204v614h-204v-614z" />
    <glyph glyph-name=".notdef" horiz-adv-x="374" 
d="M34 0v682h272v-682h-272zM68 34h204v614h-204v-614z" />
    <glyph glyph-name=".null" horiz-adv-x="0" 
 />
    <glyph glyph-name="nonmarkingreturn" horiz-adv-x="341" 
 />
    <glyph glyph-name="x" unicode="x" horiz-adv-x="1001" 
d="M281 543q-27 -1 -53 -1h-83q-18 0 -36.5 -6t-32.5 -18.5t-23 -32t-9 -45.5v-76h912v41q0 16 -0.5 30t-0.5 18q0 13 -5 29t-17 29.5t-31.5 22.5t-49.5 9h-133v-97h-438v97zM955 310v-52q0 -23 0.5 -52t0.5 -58t-10.5 -47.5t-26 -30t-33 -16t-31.5 -4.5q-14 -1 -29.5 -0.5
t-29.5 0.5h-32l-45 128h-439l-44 -128h-29h-34q-20 0 -45 1q-25 0 -41 9.5t-25.5 23t-13.5 29.5t-4 30v167h911zM163 247q-12 0 -21 -8.5t-9 -21.5t9 -21.5t21 -8.5q13 0 22 8.5t9 21.5t-9 21.5t-22 8.5zM316 123q-8 -26 -14 -48q-5 -19 -10.5 -37t-7.5 -25t-3 -15t1 -14.5
t9.5 -10.5t21.5 -4h37h67h81h80h64h36q23 0 34 12t2 38q-5 13 -9.5 30.5t-9.5 34.5q-5 19 -11 39h-368zM336 498v228q0 11 2.5 23t10 21.5t20.5 15.5t34 6h188q31 0 51.5 -14.5t20.5 -52.5v-227h-327z" />
    <glyph glyph-name="uniE600" unicode="&#xe600;" 
d="M888 598q-10 9 -23 8.5t-22 -10.5l-427 -454l-233 230q-10 9 -23 9t-22.5 -9.5t-9.5 -23t10 -22.5l256 -253h1q1 -1 7 -4q0 -1 1 -1.5t2 -1.5q6 -2 12 -2t12 3q1 0 2 1t2 1q5 3 7 5v0l449 479q9 9 9 22.5t-10 22.5z" />
    <glyph glyph-name="uniE601" unicode="&#xe601;" 
d="M557 383l266 264q9 9 9 22t-9.5 22.5t-22.5 9.5t-23 -9l-265 -264l-263 264q-9 9 -22.5 9t-23 -9t-9.5 -22.5t10 -22.5l263 -264l-265 -264q-10 -9 -10 -22.5t9.5 -22.5t22.5 -9t23 9l265 264l265 -267q10 -9 23 -9t22.5 9.5t9.5 22.5t-9 23z" />
    <glyph glyph-name="uniE602" unicode="&#xe602;" 
d="M944 732v-54v-324h-54v281l-389 -389l-43 43l389 389h-281v54h378zM890 30h-648v648h216v54h-186q-35 0 -59.5 -24.5t-24.5 -59.5v-588q0 -35 24.5 -59.5t59.5 -24.5h588q35 0 59.5 24.5t24.5 59.5v186h-54v-216zM134 516h-54v-571q0 -44 19 -60.5t65 -16.5h564v54h-594
v594z" />
    <glyph glyph-name="uniE603" unicode="&#xe603;" 
d="M512 830q-91 0 -173.5 -35.5t-142 -95t-95 -142t-35.5 -173.5t35.5 -173.5t95 -142t142 -95t173.5 -35.5t173.5 35.5t142 95t95 142t35.5 173.5t-35.5 173.5t-95 142t-142 95t-173.5 35.5zM727 458l-256 -259v-1q-2 -1 -7 -4q-1 -1 -2 -1.5t-2 -1.5q-6 -2 -12 -2t-12 2
q-1 1 -2 1.5t-1 1.5q-6 3 -7 4v1h-1l-126 129q-9 10 -9 23t9.5 22.5t23 9t22.5 -9.5l103 -106l234 236q9 9 22.5 9t22.5 -9t9.5 -22.5t-9.5 -22.5z" />
    <glyph glyph-name="uniE604" unicode="&#xe604;" 
d="M512 -64q-185 0 -316.5 131.5t-131.5 316.5t131.5 316.5t316.5 131.5t316.5 -131.5t131.5 -316.5t-131.5 -316.5t-316.5 -131.5zM512 768q-104 0 -192.5 -51.5t-140 -140t-51.5 -192.5t51.5 -192.5t140 -140t192.5 -51.5t192.5 51.5t140 140t51.5 192.5t-51.5 192.5
t-140 140t-192.5 51.5zM727 502.5q-9 9.5 -22.5 9.5t-22.5 -9l-234 -236l-103 106q-9 9 -22.5 9.5t-23 -9t-9.5 -22.5t9 -23l126 -129h1v-1q1 -1 7 -4q0 -1 1 -1.5t2 -1.5q6 -2 12 -2t12 2q1 1 2 1.5t2 1.5q5 3 7 4v1l256 259q10 9 9.5 22t-9.5 22.5z" />
    <glyph glyph-name="uniE605" unicode="&#xe605;" 
d="M512 832q-185 0 -316.5 -131.5t-131.5 -316.5t131.5 -316.5t316.5 -131.5t316.5 131.5t131.5 316.5t-131.5 316.5t-316.5 131.5zM695 246q9 -9 9 -22.5t-9.5 -23t-22.5 -9.5t-23 10l-137 138l-138 -137q-10 -9 -23 -9t-22.5 9.5t-9.5 22.5t10 23l138 136l-138 138
q-9 9 -9 22.5t9.5 23t22.5 9.5t23 -10l137 -138l138 137q10 9 23 9t22.5 -9.5t9.5 -22.5t-10 -23l-138 -136z" />
    <glyph glyph-name="uniE606" unicode="&#xe606;" 
d="M512 -64q-185 0 -316.5 131.5t-131.5 316.5t131.5 316.5t316.5 131.5t316.5 -131.5t131.5 -316.5t-131.5 -316.5t-316.5 -131.5zM512 768q-104 0 -192.5 -51.5t-140 -140t-51.5 -192.5t51.5 -192.5t140 -140t192.5 -51.5t192.5 51.5t140 140t51.5 192.5t-51.5 192.5
t-140 140t-192.5 51.5zM557 383l138 136q10 10 10 23t-9.5 22.5t-22.5 9.5t-23 -9l-138 -137l-137 137q-9 9 -22 9t-22.5 -9t-9.5 -22.5t9 -22.5l136 -137l-137 -136q-9 -9 -9.5 -22.5t9 -23t22.5 -9.5q14 0 23 10l138 136l138 -140q10 -9 23 -9t22.5 9.5t9.5 22.5t-9 23z
" />
    <glyph glyph-name="uniE607" unicode="&#xe607;" 
d="M890.5 565q-9.5 9 -23 9t-22.5 -9l-328 -331l-332 329q-10 10 -23 10t-22.5 -9.5t-9.5 -23t10 -22.5l353 -350h1l1 -1v-1q10 -9 23 -9t22 9l350 354q10 9 10 22.5t-9.5 22.5z" />
    <glyph glyph-name="uniE608" unicode="&#xe608;" 
d="M512 832q-185 0 -316.5 -131.5t-131.5 -316.5t131.5 -316.5t316.5 -131.5t316.5 131.5t131.5 316.5t-131.5 316.5t-316.5 131.5zM512 64q-20 0 -34 14t-14 34t14 34t34 14t34 -14t14 -34t-14 -34t-34 -14zM601 391q-19 -19 -28.5 -29t-19 -26t-9.5 -28v-54
q0 -13 -9.5 -22.5t-22.5 -9.5t-22.5 9.5t-9.5 22.5v54q0 25 13 50t25.5 39.5t36.5 38.5q18 17 26.5 26.5t17.5 23.5t9 24q0 40 -28 68.5t-68 28.5t-68 -27.5t-28 -67.5q0 -13 -9.5 -22.5t-22.5 -9.5t-22.5 9.5t-9.5 22.5q0 66 47 112.5t113 46.5t113 -47t47 -114
q0 -22 -12 -45.5t-24 -37t-35 -36.5z" />
    <glyph glyph-name="uniE609" unicode="&#xe609;" 
d="M512 112zM464 112q0 20 14 34t34 14t34 -14t14 -34t-14 -34t-34 -14t-34 14t-14 34zM512 -64q-185 0 -316.5 131.5t-131.5 316.5t131.5 316.5t316.5 131.5t316.5 -131.5t131.5 -316.5t-131.5 -316.5t-316.5 -131.5zM512 768q-104 0 -192.5 -51.5t-140 -140t-51.5 -192.5
t51.5 -192.5t140 -140t192.5 -51.5t192.5 51.5t140 140t51.5 192.5t-51.5 192.5t-140 140t-192.5 51.5zM512 222q-13 0 -22.5 9.5t-9.5 22.5v54q0 25 13 50t25.5 39.5t36.5 38.5q18 18 26.5 27t17.5 23t9 24q0 40 -28 68.5t-68 28.5t-68 -27.5t-28 -67.5q0 -13 -9.5 -22.5
t-22.5 -9.5t-22.5 9.5t-9.5 22.5q0 66 47 112.5t113 46.5t113 -47t47 -114q0 -22 -12 -45.5t-24 -37t-35 -36.5q-19 -19 -28.5 -29t-19 -26t-9.5 -28v-54q0 -13 -9.5 -22.5t-22.5 -9.5z" />
    <glyph glyph-name="uniE60A" unicode="&#xe60a;" 
d="M608 128q-13 0 -22.5 9.5t-9.5 22.5v352q0 13 9.5 22.5t22.5 9.5t22.5 -9.5t9.5 -22.5v-352q0 -13 -9.5 -22.5t-22.5 -9.5zM416 128q-13 0 -22.5 9.5t-9.5 22.5v352q0 13 9.5 22.5t22.5 9.5t22.5 -9.5t9.5 -22.5v-352q0 -13 -9.5 -22.5t-22.5 -9.5zM928 672h-160v64
q0 40 -28 68t-67 28h-321q-40 0 -68 -28t-28 -68v-64h-160q-13 0 -22.5 -9.5t-9.5 -22.5t9.5 -22.5t22.5 -9.5h832q13 0 22.5 9.5t9.5 22.5t-9.5 22.5t-22.5 9.5zM320 736q0 13 9.5 22.5t22.5 9.5h321q13 0 22 -9.5t9 -22.5v-64h-384v64zM736 -64h-448q-40 0 -68 28t-28 68
v480q0 14 9.5 23t22.5 9t22.5 -9t9.5 -23v-480q0 -13 9.5 -22.5t22.5 -9.5h448q13 0 22.5 9.5t9.5 22.5v479q0 13 9.5 22.5t22.5 9.5t22.5 -9.5t9.5 -22.5v-479q0 -40 -28 -68t-68 -28z" />
    <glyph glyph-name="uniE60B" unicode="&#xe60b;" 
d="M512 -62q-90 0 -171.5 33.5t-145 97t-97.5 145t-34 170.5t34 170.5t97.5 145t145 97t171.5 33.5t171.5 -33.5t145 -97t97.5 -145t34 -170.5t-34 -170.5t-97.5 -145t-145 -97t-171.5 -33.5zM512 766q-77 0 -147 -29t-124.5 -83t-83.5 -123.5t-29 -146.5t29 -146.5
t83.5 -123.5t124.5 -83t147 -29t147 29t124.5 83t83.5 124t29 146.5t-29 146t-83.5 123.5t-124.5 83t-147 29zM736 416h-192v192q0 13 -9.5 22.5t-22.5 9.5t-22.5 -9.5t-9.5 -22.5v-192h-192q-13 0 -22.5 -9.5t-9.5 -22.5t9.5 -22.5t22.5 -9.5h192v-192q0 -13 9.5 -22.5
t22.5 -9.5t22.5 9.5t9.5 22.5v192h192q13 0 22.5 9.5t9.5 22.5t-9.5 22.5t-22.5 9.5z" />
    <glyph glyph-name="uniE60C" unicode="&#xe60c;" 
d="M832 544q0 87 -43 160.5t-116.5 116.5t-160.5 43t-160.5 -43t-116.5 -116.5t-43 -160.5q0 -105 66 -192h-2l256 -448l256 448h-1q65 87 65 192zM512 416q-53 0 -90.5 37.5t-37.5 90.5t37.5 90.5t90.5 37.5t90.5 -37.5t37.5 -90.5t-37.5 -90.5t-90.5 -37.5z" />
    <glyph glyph-name="uniE60D" unicode="&#xe60d;" 
d="M887 279l-353 350l-1 1h-1v1q-10 9 -23 9t-22 -10l-350 -353q-10 -9 -10 -22.5t9.5 -22.5t23 -9t22.5 9l328 331l332 -330q10 -9 23 -9t22.5 9.5t9.5 23t-10 22.5z" />
    <glyph glyph-name="uniE60E" unicode="&#xe60e;" 
d="M512 830q-91 0 -173.5 -35.5t-142 -95t-95 -142t-35.5 -173.5t35.5 -173.5t95 -142t142 -95t173.5 -35.5t173.5 35.5t142 95t95 142t35.5 173.5t-35.5 173.5t-95 142t-142 95t-173.5 35.5zM544 160q0 -13 -9.5 -22.5t-22.5 -9.5t-22.5 9.5t-9.5 22.5v288q0 13 9.5 22.5
t22.5 9.5t22.5 -9.5t9.5 -22.5v-288zM512 544q-20 0 -34 14t-14 34t14 34t34 14t34 -14t14 -34t-14 -34t-34 -14z" />
    <glyph glyph-name="uniE60F" unicode="&#xe60f;" 
d="M512 -62q-91 0 -173.5 35.5t-142 95t-95 142t-35.5 173.5t35.5 173.5t95 142t142 95t173.5 35.5t173.5 -35.5t142 -95t95 -142t35.5 -173.5t-35.5 -173.5t-95 -142t-142 -95t-173.5 -35.5zM512 766q-104 0 -192 -51t-139 -139t-51 -192t51 -192t139 -139t192 -51t192 51
t139 139t51 192t-51 192t-139 139t-192 51zM512 592zM464 592q0 20 14 34t34 14t34 -14t14 -34t-14 -34t-34 -14t-34 14t-14 34zM512 128q-13 0 -22.5 9.5t-9.5 22.5v288q0 13 9.5 22.5t22.5 9.5t22.5 -9.5t9.5 -22.5v-288q0 -13 -9.5 -22.5t-22.5 -9.5z" />
    <glyph glyph-name="uniE610" unicode="&#xe610;" 
d="M509 818q-19 0 -35 -9.5t-24 -26.5l-104 -211l-239 -34q-18 -3 -32.5 -14.5t-20.5 -28.5q-12 -36 16 -64l175 -170l-41 -237q-7 -39 27 -62q18 -12 38 -12q17 0 32 8l208 110l209 -110q15 -8 31 -8q21 0 39 12q33 23 27 62l-41 237l175 170q28 28 16 64q-6 17 -20.5 28.5
t-32.5 14.5l-239 34l-104 211q-8 17 -24 26.5t-36 9.5z" />
    <glyph glyph-name="uniE611" unicode="&#xe611;" 
d="M509.5 777q15.5 0 22.5 -13l104 -210q9 -20 31 -23l239 -35q14 -2 19 -15q4 -12 -5 -22l-175 -171q-15 -14 -12 -35l41 -237q2 -13 -10 -21q-6 -5 -15 -5q-6 0 -12 3l-208 110q-9 5 -19.5 5t-19.5 -5l-208 -110q-6 -3 -13 -3q-8 0 -14 5q-12 8 -10 21l41 237q3 21 -12 35
l-175 171q-10 10 -5 22q4 13 19 15l239 35q22 3 31 23l104 210q7 13 22.5 13zM509 818q-19 0 -35 -9.5t-24 -26.5l-104 -211l-239 -34q-18 -3 -32.5 -14.5t-20.5 -28.5q-12 -36 16 -64l175 -170l-41 -237q-7 -39 27 -62q18 -12 38 -12q17 0 32 8l208 110l209 -110
q15 -8 31 -8q21 0 39 12q33 23 27 62l-41 237l175 170q28 28 16 64q-6 17 -20.5 28.5t-32.5 14.5l-239 34l-104 211q-8 17 -24 26.5t-36 9.5z" />
    <glyph glyph-name="uniE612" unicode="&#xe612;" 
d="M512 512q-53 0 -90.5 -37.5t-37.5 -90.5t37.5 -90.5t90.5 -37.5t90.5 37.5t37.5 90.5t-37.5 90.5t-90.5 37.5zM512 320q-26 0 -45 19t-19 45t19 45t45 19t45 -19t19 -45t-19 -45t-45 -19zM928 416h-1q-12 153 -121 262t-262 121v1q0 13 -9.5 22.5t-22.5 9.5t-22.5 -9.5
t-9.5 -22.5v-1q-153 -12 -262 -121t-121 -262h-1q-13 0 -22.5 -9.5t-9.5 -22.5t9.5 -22.5t22.5 -9.5h1q12 -153 121 -262t262 -121v-1q0 -13 9.5 -22.5t22.5 -9.5t22.5 9.5t9.5 22.5v1q153 12 262 121t121 262h1q13 0 22.5 9.5t9.5 22.5t-9.5 22.5t-22.5 9.5zM544 33v63
q0 13 -9.5 22.5t-22.5 9.5t-22.5 -9.5t-9.5 -22.5v-63q-127 11 -217.5 101.5t-101.5 217.5h63q13 0 22.5 9.5t9.5 22.5t-9.5 22.5t-22.5 9.5h-63q11 127 101.5 217.5t217.5 101.5v-63q0 -13 9.5 -22.5t22.5 -9.5t22.5 9.5t9.5 22.5v63q127 -11 217.5 -101.5t101.5 -217.5
h-63q-13 0 -22.5 -9.5t-9.5 -22.5t9.5 -22.5t22.5 -9.5h63q-11 -127 -101.5 -217.5t-217.5 -101.5z" />
    <glyph glyph-name="uniE613" unicode="&#xe613;" 
d="M877 404zM758.5 -54.5q9.5 9.5 10 22.5t-7.5 22l-377 376q-12 12 -12 18t12 18l377 376q8 9 7.5 22t-10 22t-22.5 9.5t-22 -7.5l-418 -419q-7 -7 -8 -18v-6q1 -11 8 -18l418 -419q9 -8 22 -8t22.5 9.5z" />
    <glyph glyph-name="uniE614" unicode="&#xe614;" 
d="M877 404zM298 -54.5q-9 9.5 -10 22.5t8 22l376 376q12 12 12 18t-12 18l-376 376q-9 9 -8 22t10 22t22.5 9.5t21.5 -7.5l419 -419q7 -7 7 -18v-6q0 -11 -7 -18l-419 -419q-8 -8 -21.5 -8t-22.5 9.5z" />
    <glyph glyph-name="uniE615" unicode="&#xe615;" 
d="M992 384q0 9 -1 11q-1 6 -2 11q-1 1 -1 2q-1 3 -2 4q-66 145 -197 234.5t-277 89.5t-277 -89t-197 -234q-1 -3 -2 -5q0 -2 -1 -2q0 -2 -1 -8l-2 -11v-6q1 -7 1 -8q0 -3 1 -7l2 -6q1 -3 2 -4q66 -145 197 -234.5t277 -89.5t277 89t196 233q2 3 3 7q0 1 1 1q0 2 0.5 4
t1 3.5t-0.5 1.5q2 8 2 13zM512 224q-66 0 -113 47t-47 113t47 113t113 47t113 -47t47 -113t-47 -113t-113 -47z" />
    <glyph glyph-name="uniE616" unicode="&#xe616;" 
d="M992 384q0 9 -1 11q-1 6 -2 11q-1 1 -1 2q-1 3 -2 4q-66 145 -197 234.5t-277 89.5t-277 -89t-197 -234q-1 -3 -2 -5q0 -2 -1 -2q0 -2 -1 -8l-2 -11v-6q1 -7 1 -8q0 -3 1 -7l2 -6q1 -3 2 -4q66 -145 197 -234.5t277 -89.5t277 89t196 233q2 3 3 7q0 1 1 1q0 2 0.5 4
t1 3.5t-0.5 1.5q2 8 2 13zM927 382v-1v-1q-59 -128 -173.5 -206t-241.5 -78t-241 78t-174 206v2h-1v1v1v1q0 1 1 2v1q59 128 173.5 206t241.5 78t241.5 -78t173.5 -206v-1q1 -3 1 -4zM512 544q-66 0 -113 -47t-47 -113t47 -113t113 -47t113 47t47 113t-47 113t-113 47z
M512 288q-40 0 -68 28t-28 68t28 68t68 28t68 -28t28 -68t-28 -68t-68 -28z" />
    <glyph glyph-name="uniE617" unicode="&#xe617;" 
d="M512 662q-59 0 -101 -41t-42 -98.5t42 -98.5t101 -41t100.5 41t41.5 98.5t-41.5 98.5t-100.5 41zM512 445q-33 0 -56 22.5t-23 55t23 55t56 22.5t56 -22.5t23 -55t-23 -55t-56 -22.5zM846 502q0 89 -45 164.5t-122 119t-167.5 43.5t-167 -43.5t-121.5 -119t-45 -164.5
q0 -50 32 -126t84 -158.5t93.5 -142.5t84.5 -117q15 -19 40 -19t40 19q43 57 84.5 117t93.5 142.5t84 158.5t32 126zM517 8l-5 -7l-5 7q-125 166 -198 298.5t-73 195.5q0 112 81 191.5t195 79.5t195 -79.5t81 -191.5q0 -63 -73 -195.5t-198 -298.5z" />
    <glyph glyph-name="uniE618" unicode="&#xe618;" 
d="M697 760q-32 0 -62 -12.5t-53.5 -34t-39.5 -40t-29 -38.5q-13 20 -28.5 38.5t-39 40t-53.5 34t-62 12.5q-98 0 -167.5 -76.5t-69.5 -184.5q0 -51 30 -114t72 -101q54 -70 176 -173t143 -103q22 0 141.5 101.5t175.5 173.5q42 38 72 101.5t30 114.5q0 108 -69 184.5
t-167 76.5z" />
    <glyph glyph-name="uniE619" unicode="&#xe619;" 
d="M697 760q-32 0 -62 -12.5t-53.5 -34t-39.5 -40t-29 -38.5q-13 20 -28.5 38.5t-39 40t-53.5 34t-62 12.5q-98 0 -167.5 -76.5t-69.5 -184.5q0 -51 30 -114t72 -101q54 -70 176 -173t143 -103q22 0 141.5 101.5t175.5 173.5q42 38 72 101.5t30 114.5q0 108 -69 184.5
t-167 76.5zM878 499q0 -41 -25.5 -93t-60.5 -83q-1 -2 -3 -4q-46 -60 -127 -130.5t-148 -118.5q-193 141 -276 250q-2 1 -4 3q-34 31 -59.5 83t-25.5 93q0 85 53 145.5t128 60.5q45 0 88 -41t70 -98q7 -14 25 -14t26 14q27 57 70 98t88 41q75 0 128 -60.5t53 -145.5z" />
    <glyph glyph-name="uniE61A" unicode="&#xe61a;" 
d="M902.5 100.5q-9.5 9.5 -22.5 9.5h-751q-13 0 -22.5 -9.5t-9.5 -23t9.5 -23t22.5 -9.5h751q13 0 22.5 9.5t9.5 23t-9.5 23zM880 435h-751q-13 0 -22.5 -9.5t-9.5 -23t9.5 -23t22.5 -9.5h751q13 0 22.5 9.5t9.5 23t-9.5 23t-22.5 9.5zM903 742q-10 9 -23 9h-751
q-13 0 -22.5 -9.5t-9.5 -23t9.5 -23t22.5 -9.5h751q13 0 22.5 9.5t9.5 23t-9 23.5z" />
    <glyph glyph-name="uniE61B" unicode="&#xe61b;" 
d="M901 516l-263 256q-28 27 -71.5 27t-71.5 -27l-327 -320q-44 -42 -57 -69.5t-13 -81.5v-144q0 -53 6.5 -86t26.5 -58.5t57 -36.5t96 -11h132q30 0 54.5 7.5t50 25.5t42 32.5t47.5 46.5l290 297q30 29 30 72q0 42 -29 70zM323 109q-40 0 -68 28.5t-28 68t28 67.5t68 28
t68 -28t28 -67.5t-28 -68t-68 -28.5z" />
    <glyph glyph-name="uniE61C" unicode="&#xe61c;" 
d="M323 109q-40 0 -68 28.5t-28 68t28 67.5t68 28t68 -28t28 -67.5t-28 -68t-68 -28.5zM323 237q-13 0 -22.5 -9.5t-9.5 -22.5t9.5 -22.5t22.5 -9.5t22.5 9.5t9.5 22.5t-9.5 22.5t-22.5 9.5zM416 -31h-132q-59 0 -96 10.5t-57 36t-27 58.5t-7 87v141q0 54 13.5 81t57.5 70
l327 320q28 26 71.5 26t70.5 -26l263 -256q29 -28 29 -71t-29 -71l-290 -295q-32 -31 -48 -45.5t-41.5 -33t-50.5 -25.5t-54 -7zM566.5 737q-16.5 0 -26.5 -10l-327 -320q-37 -36 -44.5 -51.5t-7.5 -53.5v-141q0 -31 1 -48t5.5 -33.5t12 -24t22 -13.5t33.5 -7.5t49 -1.5h132
q37 0 65.5 19.5t83.5 73.5l27 26l263 268q10 10 10 26t-9 25l-263 256q-10 10 -26.5 10z" />
    <glyph glyph-name="uniE61D" unicode="&#xe61d;" 
d="M863 413l-317 2v318q0 13 -9.5 22.5t-22.5 9.5t-22.5 -9.5t-9.5 -22.5v-318l-322 1q-14 0 -23 -9.5t-9.5 -22.5t9 -22.5t22.5 -9.5l323 -1v-319q0 -14 9.5 -23t22.5 -9t22.5 9t9.5 23v319l317 -2q13 0 22.5 9.5t9.5 23t-9 22.5t-23 9z" />
    <glyph glyph-name="uniE61E" unicode="&#xe61e;" 
d="M864 352h-701q-13 0 -22.5 9.5t-9.5 22.5t9.5 22.5t22.5 9.5h701q13 0 22.5 -9.5t9.5 -22.5t-9.5 -22.5t-22.5 -9.5z" />
    <glyph glyph-name="uniE61F" unicode="&#xe61f;" 
d="M177 691v0v0zM232 40h168v112h-168v-112zM791 747h-56v-167h56v167zM288 747h-56v-167h56v167zM232 208h168v112h-168v-112zM846 691h1h-1zM679 208h112v112h-112v-112zM847 691v-83q0 -35 -24.5 -59.5t-59.5 -24.5t-59.5 24.5t-24.5 59.5v83h-335v-83q0 -35 -24.5 -59.5
t-59 -24.5t-59 24.5t-24.5 59.5v83q-47 0 -79.5 -32.5t-32.5 -79.5v-613q0 -46 33 -79t79 -33h669q47 0 79.5 32.5t32.5 79.5v613q0 47 -32.5 79.5t-78.5 32.5zM902 -36q0 -23 -16.5 -39t-39.5 -16h-670q-23 0 -39.5 16t-16.5 39v410q0 23 16.5 39.5t39.5 16.5h670
q23 0 39.5 -16.5t16.5 -39.5v-410zM456 208h167v112h-167v-112zM456 40h167v112h-167v-112zM679 40h112v112h-112v-112zM679 40z" />
    <glyph glyph-name="uniE620" unicode="&#xe620;" 
d="M513 840q-122 1 -226.5 -58t-166.5 -161.5t-66 -224.5q3 106 54 195.5t135.5 141t183.5 51.5q101 -1 186.5 -55t135 -146t48.5 -201q0 -35 25 -60.5t60.5 -25.5t60.5 25t26 60q0 93 -36 178t-97 146.5t-145.5 98t-177.5 36.5z" />
    <glyph glyph-name="uniE621" unicode="&#xe621;" 
d="M308 512q10 -9 23 -9t23 9l126 127v-563q0 -13 9.5 -22.5t22.5 -9.5t22.5 9.5t9.5 22.5v563l126 -127q10 -9 23 -9t23 9q9 10 9 23t-9 23l-181 181q-10 9 -23 9t-23 -9l-181 -181q-9 -10 -9 -23t9 -23zM896 140v-192q0 -13 -9.5 -22.5t-22.5 -9.5h-704q-13 0 -22.5 9.5
t-9.5 22.5v192q0 13 -9.5 22.5t-22.5 9.5t-22.5 -9.5t-9.5 -22.5v-224q0 -26 19 -45t45 -19h768q26 0 45 19t19 45v224q0 13 -9.5 22.5t-22.5 9.5t-22.5 -9.5t-9.5 -22.5z" />
    <glyph glyph-name="uniE622" unicode="&#xe622;" 
d="M889 573l-377 -378l-377 378h754z" />
    <glyph glyph-name="uniE623" unicode="&#xe623;" 
d="M513 832q-91 0 -173.5 -35t-142.5 -95t-95.5 -143t-35.5 -174t35.5 -173.5t95.5 -142.5t142.5 -95.5t173.5 -35.5t174 35.5t143 95.5t95.5 142.5t35.5 173.5t-35.5 174t-95.5 143t-143 95t-174 35zM513 -9q-107 0 -197.5 52.5t-143.5 143.5t-53 198t53 198t143.5 143.5
t197.5 52.5t198 -52.5t144 -143.5t53 -198t-53 -198t-144 -143.5t-198 -52.5zM513 -9z" />
    <glyph glyph-name="uniE624" unicode="&#xe624;" 
d="M513 832q-91 0 -173.5 -35t-142.5 -95t-95.5 -143t-35.5 -174t35.5 -173.5t95.5 -142.5t142.5 -95.5t173.5 -35.5t174 35.5t143 95.5t95.5 142.5t35.5 173.5t-35.5 174t-95.5 143t-143 95t-174 35zM513 -9q-107 0 -197.5 52.5t-143.5 143.5t-53 198t53 198t143.5 143.5
t197.5 52.5t198 -52.5t144 -143.5t53 -198t-53 -198t-144 -143.5t-198 -52.5zM192 385.5q0 -87.5 43 -161.5t117 -117.5t161.5 -43.5t161.5 43.5t117 117.5t43 161q0 88 -43 162t-117 117t-161.5 43t-161.5 -43t-117 -117t-43 -161.5z" />
    <glyph glyph-name="uniE625" unicode="&#xe625;" 
d="M512 821q-89 0 -170 -34.5t-139.5 -93t-93 -139.5t-34.5 -170t34.5 -170t93 -139.5t139.5 -93t170 -34.5t170 34.5t139.5 93t93 139.5t34.5 170t-34.5 170t-93 139.5t-139.5 93t-170 34.5zM512 -24q-111 0 -205 54.5t-148.5 148.5t-54.5 205t54.5 205t148.5 148.5
t205 54.5t205 -54.5t148.5 -148.5t54.5 -205t-54.5 -205t-148.5 -148.5t-205 -54.5zM479 580q-11 10 -21 -0.5t0 -20.5l175 -175l-175 -175q-10 -10 0 -20.5t21 -0.5l185 186q10 10 0 20z" />
    <glyph glyph-name="uniE626" unicode="&#xe626;" horiz-adv-x="1025" 
d="M936 -66h-848q-10 0 -18 8t-8 18v212q0 11 8 19t18.5 8t18.5 -8t8 -19v-185h794v185q0 11 8 19t18.5 8t18.5 -8t8 -19v-212q0 -10 -8 -18t-18 -8zM399 323l87 -106v591q0 10 8 18t19 8t18.5 -8t7.5 -18v-590l87 105q8 8 19 8t18.5 -8t7.5 -19t-8 -19l-130 -158
q-9 -8 -21 -8q-11 0 -20 8l-130 158q-8 8 -8 19t7.5 19t18.5 8t19 -8z" />
    <glyph glyph-name="uniE627" unicode="&#xe627;" horiz-adv-x="1025" 
d="M954.5 -58.5q-7.5 -7.5 -18.5 -7.5t-19 8l-248 248q-104 -89 -240 -89q-99 0 -184 49t-134 133.5t-49 184t49 184t134 133.5t184.5 49t184 -49t133.5 -133.5t49 -184.5q0 -137 -90 -240l248 -248q8 -8 8 -19t-7.5 -18.5zM745 467.5q0 130.5 -92.5 222.5t-223 92t-223 -92
t-92.5 -222.5t92.5 -222.5t222.5 -92q131 0 223.5 92t92.5 222.5zM419 668q-79 -12 -131 -73t-52 -142q0 -14 2 -30q1 -9 -4 -16.5t-14 -8.5h-4q-8 0 -14 5t-7 13q-3 21 -3 37q0 97 62.5 170t157.5 89q9 1 16.5 -4.5t9 -14t-4 -16t-14.5 -9.5z" />
    <glyph glyph-name="uniE628" unicode="&#xe628;" 
d="M845 142q-46 0 -78.5 -40t-32.5 -95.5t32.5 -95t78.5 -39.5t79 39.5t33 95.5t-33 95.5t-79 39.5zM845.5 -74q-27.5 0 -47 23.5t-19.5 57t19.5 57.5t47 24t47 -24t19.5 -57.5t-19.5 -57t-47 -23.5zM311.5 142q-46.5 0 -79 -39.5t-32.5 -95.5t32.5 -95.5t79 -39.5t79 39.5
t32.5 95t-32.5 95.5t-79 40zM311.5 -74q-27.5 0 -47 23.5t-19.5 57t19.5 57.5t47 24t47 -24t19.5 -57.5t-19.5 -57t-47 -23.5zM1023 625v1v1v-1v-1zM979 707h-757q0 -1 -4.5 14t-10 36.5t-11.5 43.5l-9 38l-4 16q-1 6 -4 11l-1 3q-2 10 -9 18.5t-13 8.5h-134q-7 0 -14.5 -9
t-7.5 -18t7.5 -18t14.5 -9h112l148 -593q-82 1 -82 -81q0 -40 24 -60t65 -20h601q2 0 5.5 1t9.5 8t7 18q0 1 -11 7.5t-22 12.5l-11 7h-564h-4h-26q-8 0 -18 2.5t-14.5 8.5t-4.5 15.5t4.5 15.5t15 8t18.5 2.5t25 0.5h4h7h512h22q54 -2 67 54l111 377v29q0 17 -11.5 33
t-32.5 19zM868 276q-6 -25 -23 -27h-22h-489l-105 405h728q5 0 8.5 -1.5t6 -3.5t4 -5t2 -6t1 -5.5t0.5 -4.5v-1z" />
    <glyph glyph-name="uniE629" unicode="&#xe629;" 
d="M914 146v403q0 22 -16 38t-39 16h-402q-23 0 -39 16t-16 39v37q0 23 -16 39t-39 16h-182q-23 0 -39 -16t-16 -39v-549q0 -23 16 -39t39 -16h694q23 0 39 16t16 39zM987 549v-403q0 -52 -37.5 -90t-90.5 -38h-694q-53 0 -90.5 38t-37.5 90v549q0 52 37.5 90t90.5 38h182
q53 0 90.5 -38t37.5 -90v-18h384q53 0 90.5 -38t37.5 -90z" />
    <glyph glyph-name="uniE62A" unicode="&#xe62a;" horiz-adv-x="1098" 
d="M1018 364q0 20 -31 20h-621q-23 0 -49 -12.5t-41 -29.5l-168 -208q-10 -13 -10 -23q0 -20 30 -20h622q23 0 49 13t40 30l168 208q11 12 11 22zM366 457h439v92q0 22 -16 38t-39 16h-329q-23 0 -39 16t-16 39v37q0 23 -16 39t-39 16h-183q-23 0 -39 -16t-16 -39v-488
l146 180q26 31 67 50.5t80 19.5zM1091 364q0 -35 -26 -69l-169 -207q-25 -30 -66.5 -50t-79.5 -20h-622q-53 0 -90.5 38t-37.5 90v549q0 52 37.5 90t90.5 38h183q52 0 90 -38t38 -90v-18h311q52 0 90 -38t38 -90v-92h109q31 0 57 -14t38 -40q9 -18 9 -39z" />
    <glyph glyph-name="uniE62B" unicode="&#xe62b;" 
d="M941 402h-811l389 337q8 6 9.5 15t-4 15.5t-15 6.5t-16.5 -7l-422 -365q-9 -8 -9 -20v0v-1q0 -11 9 -19l422 -366q7 -6 16.5 -6t15 6.5t4 15t-9.5 14.5l-380 329h802q9 0 15 7t6 15.5t-6 15.5t-15 7z" />
    <glyph glyph-name="uniE62C" unicode="&#xe62c;" 
d="M827 830h-630q-56 0 -95.5 -40.5t-39.5 -96.5v-450q0 -56 39.5 -94.5t95.5 -38.5h203v45h-181q-46 0 -79 34t-33 81v401q0 46 33 80t79 34h585q47 0 80 -34t33 -80v-401q0 -47 -33 -81t-80 -34h-224v-45h247q56 0 95.5 38.5t39.5 94.5v450q0 56 -39.5 96.5t-95.5 40.5z
M579 152q-3 -7 -23.5 -48t-21.5 -41q-5 -9 -12 -22t-10 -19t-8 -14t-8 -9.5t-7.5 -2t-8.5 4t-9.5 12.5t-11.5 20l-15 30q-1 3 -17 35t-25 55h-2h-1q-62 1 -22 -67q7 -16 17 -33.5t18.5 -31t16 -25t12 -17.5t3.5 -6q46 -67 90 0q1 0 17.5 28.5t33.5 56.5l17 28q12 24 12 39
t-8.5 20.5t-26.5 6.5zM287 603h450q9 0 16 -6.5t7 -16t-7 -16t-16 -6.5h-450q-9 0 -16 6.5t-7 16t7 16t16 6.5zM287 401h450q9 0 16 -7t7 -16t-7 -15.5t-16 -6.5h-450q-9 0 -16 6.5t-7 15.5t7 16t16 7z" />
    <glyph glyph-name="uniE62D" unicode="&#xe62d;" 
d="M62 663h86v-86h-86v86zM62 427h86v-86h-86v86zM62 191h86v-86h-86v86zM233 641h729v-43h-729v43zM233 405h729v-42h-729v42zM233 170h729v-43h-729v43z" />
    <glyph glyph-name="uniE62E" unicode="&#xe62e;" 
d="M99 -66q10 0 21 5l206 92q32 14 56 38l563 564q17 16 17 40t-17 41l-103 103q-17 17 -41 17t-40 -17l-578 -578q-24 -24 -38 -56l-79 -192q-10 -24 2 -41q11 -16 31 -16zM341 109l-103 104l477 477l103 -103zM801 777l103 -104l-45 -45l-103 103zM198 161q1 2 4 6l89 -89
l-155 -69z" />
    <glyph glyph-name="uniE62F" unicode="&#xe62f;" 
d="M251 108v-142q1 -1 2 -3.5t5.5 -7t9.5 -6t13.5 2.5t18.5 15l24 23l46 48l24 23l47 47h379q19 0 32.5 13.5t14.5 34.5v521q0 47 -47 47h-711q-47 0 -47 -47v-521q0 -9 1 -14.5t5 -14.5t14.5 -13.5t26.5 -5.5q0 1 36.5 1.5t68.5 0.5t37 -2zM109 203v426q0 30 9 40t39 8h616
h4q13 0 19 -1t14 -5t10 -14t0 -28v-426q1 -19 -11.5 -33t-35.5 -14h-332q0 -1 -11 -12t-23.5 -22.5t-12.5 -13.5l-95 -94v94q0 26 -11 37t-37 11h-94q-10 0 -17.5 1t-12.5 2.5t-8.5 5.5t-5.5 6.5t-3 8t-1 7.5v9v7zM906 819h-702q-27 0 -37.5 -12t0.5 -24t37 -11v0v0v0v0v0h1
v0v0v0h1v0v0h1v0h1v0h1v0h1v0h1v0h1v0h1v0h1v0h1h1v0h1h1h1h1h1v0h1h1h1h1h1h1h1h1h1h1h1h1h1h1h1h1h1h1h1h1h1h1h1h1h1h1h1h1h1h1h1h1h1h1h1h1h1h1h1h1h1h1h1h1h1h1h1h1h1h1h1h1h1h1h1h1h1h1h1h1h1h1h1h1h1h1h1h1h1h1h1h1h1h1h1h1h1h1h1h1h1h1h1h1h1h1h1h1h1h1h1h1h1h1h1h1
h1h1h1h1h1h1h1h1h2h1h1h1h1h1h1h1h1h1h1h1h2h1h1h1h1h1h1h1h1h2h1h1h1h1h1h1h2h1h1h1h1h1h2h1h1h1h1h1h2h1h1h1h1h2h1h1h1h1h2h1h1h1h2h1h1h1h1h2h1h1h1h2h1h1h1h2h1h1h2h1h1h1h2h1h1h2h1h1h1h2h1h1h2h1h1h2h1h1h2h1h1h2h1h1h2h1h1h2h1h1h2h1h1h2h1h2h1h1h2h1h1h2h1h2h1h1h2
h1h2h1h1h2h1h2h1h1h2h1h2h1h2h1h1h2h1h2h1h2h1h2h1h1h2h1h2h1h2h1h2h1h2h1h2h1h2h1h2h1h2h1h2h1h2h1h2h1h2h1h2h1h2h1h2h1h2h1h2h1h2h1h2h1h2h2h1h2h1h2h1h2h1h2h2h1h2h1h2h2h1h2h1h2h1h2h2h1h2h1h2h2h1h2h1h2h2h1h2h2h1h2h1h2h2h1h2h2h1h2h2h1h2h1h2h2h1h2h2h1h2h2h1h2h2h1
h2h2h2h1h2h2h1h2h2h1h2h2h1h2h2h2h1h2h2h1h2h2h2h1h2h2h2h1h2h2h1h2h2h2h1h2h2h2h1h2h2h2h2h1h2h2h2h1h2h2h2h2h1h2h2h2h2h1h2h2h2h2h1h2h2h2h2h1h2h2h2h2h2h1h2h2h2h2h2h1h2h2h2h2h2h2h1h2h2h2h2h2h2h2h1h2h2h2h2h2h2h2h1h2h2h2h9h7h8q2 0 7.5 -0.5t7.5 -1.5l7 -4
q5 -2 6 -5.5t4 -8.5t2 -12t-1 -16v-426q3 -23 9 -35t12.5 -12t12.5 6t9.5 17.5t3.5 23.5v466q0 25 -15.5 40t-40.5 15z" />
    <glyph glyph-name="uniE630" unicode="&#xe630;" 
d="M957 400q-7 12 -20 29t-54.5 56t-89 69t-123.5 54t-158 24t-158 -24t-123.5 -54t-89 -69t-54.5 -56t-20 -29q-11 -16 0 -32q7 -12 20 -29t54.5 -56t89 -69t123.5 -54t158 -24t158 24t123.5 54t89 69t54.5 56t20 29q11 16 0 32zM512 252q-52 0 -89.5 39t-37.5 93
t37.5 92.5t89.5 38.5t89.5 -38.5t37.5 -92.5t-37.5 -93t-89.5 -39z" />
    <glyph glyph-name="uniE631" unicode="&#xe631;" 
d="M23 363h923l-442 -383q-9 -7 -10.5 -17.5t4.5 -18t17 -7t19 7.5l480 416q10 10 10 22v1v1q0 12 -10 22l-480 416q-8 7 -19 7t-17 -7t-4.5 -17t10.5 -17l432 -374h-913q-9 0 -16 -8t-7 -18t7 -18t16 -8z" />
    <glyph glyph-name="uniE632" unicode="&#xe632;" 
d="M987 549v-403q0 -52 -37.5 -90t-90.5 -38h-694q-53 0 -90.5 38t-37.5 90v549q0 52 37.5 90t90.5 38h182q53 0 90.5 -38t37.5 -90v-18h384q53 0 90.5 -38t37.5 -90z" />
    <glyph glyph-name="uniE633" unicode="&#xe633;" 
d="M864 643q14 -14 24 -38t10 -44v-579q0 -20 -14 -34t-35 -14h-675q-20 0 -34 14t-14 34v804q0 20 14 34t34 14h450q21 0 45 -10t38 -24zM641 766v-189h188q-5 14 -11 20l-157 158q-6 6 -20 11zM833 -2v515h-209q-20 0 -34 14t-14 34v209h-385v-772h642z" />
    <glyph glyph-name="uniE634" unicode="&#xe634;" 
d="M128 683h768q18 0 30.5 -12.5t12.5 -30.5t-12.5 -30.5t-30.5 -12.5h-768q-18 0 -30.5 12.5t-12.5 30.5t12.5 30.5t30.5 12.5zM213 171h598q17 0 29.5 -12.5t12.5 -30.5t-12.5 -30.5t-29.5 -12.5h-598q-17 0 -29.5 12.5t-12.5 30.5t12.5 30.5t29.5 12.5zM128 341h768
q18 0 30.5 -12.5t12.5 -30t-12.5 -30t-30.5 -12.5h-768q-18 0 -30.5 12.5t-12.5 30t12.5 30t30.5 12.5zM213 512h598q17 0 29.5 -12.5t12.5 -30t-12.5 -30t-29.5 -12.5h-598q-17 0 -29.5 12.5t-12.5 30t12.5 30t29.5 12.5z" />
    <glyph glyph-name="uniE635" unicode="&#xe635;" 
d="M128 683h768q18 0 30.5 -12.5t12.5 -30.5t-12.5 -30.5t-30.5 -12.5h-768q-18 0 -30.5 12.5t-12.5 30.5t12.5 30.5t30.5 12.5zM128 171h768q18 0 30.5 -12.5t12.5 -30.5t-12.5 -30.5t-30.5 -12.5h-768q-18 0 -30.5 12.5t-12.5 30.5t12.5 30.5t30.5 12.5zM128 341h768
q18 0 30.5 -12.5t12.5 -30t-12.5 -30t-30.5 -12.5h-768q-18 0 -30.5 12.5t-12.5 30t12.5 30t30.5 12.5zM128 512h768q18 0 30.5 -12.5t12.5 -30t-12.5 -30t-30.5 -12.5h-768q-18 0 -30.5 12.5t-12.5 30t12.5 30t30.5 12.5z" />
    <glyph glyph-name="uniE636" unicode="&#xe636;" 
d="M128 683h768q18 0 30.5 -12.5t12.5 -30.5t-12.5 -30.5t-30.5 -12.5h-768q-18 0 -30.5 12.5t-12.5 30.5t12.5 30.5t30.5 12.5zM128 171h597q18 0 30.5 -12.5t12.5 -30.5t-12.5 -30.5t-30.5 -12.5h-597q-18 0 -30.5 12.5t-12.5 30.5t12.5 30.5t30.5 12.5zM128 341h768
q18 0 30.5 -12.5t12.5 -30t-12.5 -30t-30.5 -12.5h-768q-18 0 -30.5 12.5t-12.5 30t12.5 30t30.5 12.5zM128 512h597q18 0 30.5 -12.5t12.5 -30t-12.5 -30t-30.5 -12.5h-597q-18 0 -30.5 12.5t-12.5 30t12.5 30t30.5 12.5z" />
    <glyph glyph-name="uniE637" unicode="&#xe637;" 
d="M128 683h768q18 0 30.5 -12.5t12.5 -30.5t-12.5 -30.5t-30.5 -12.5h-768q-18 0 -30.5 12.5t-12.5 30.5t12.5 30.5t30.5 12.5zM299 171h597q18 0 30.5 -12.5t12.5 -30.5t-12.5 -30.5t-30.5 -12.5h-597q-18 0 -30.5 12.5t-12.5 30.5t12.5 30.5t30.5 12.5zM128 341h768
q18 0 30.5 -12.5t12.5 -30t-12.5 -30t-30.5 -12.5h-768q-18 0 -30.5 12.5t-12.5 30t12.5 30t30.5 12.5zM299 512h597q18 0 30.5 -12.5t12.5 -30t-12.5 -30t-30.5 -12.5h-597q-18 0 -30.5 12.5t-12.5 30t12.5 30t30.5 12.5z" />
    <glyph glyph-name="uniE638" unicode="&#xe638;" 
d="M512 834q-186 0 -318 -132t-132 -318t132 -318t318 -132t318 132t132 318t-132 318t-318 132zM512 9q-134 0 -244 82q24 2 45 8t45.5 18.5t39.5 36.5t16 57q0 10 4 22.5t4 21t-8 17.5q-22 22 -40 101q-2 8 -12 16q-19 6 -30.5 24t-11.5 41q0 24 12 42q3 11 3 18
q0 8 -0.5 30.5t-0.5 32t1 27.5t3 28.5t6.5 22.5t9.5 21q40 59 99.5 80t118.5 0t98 -80q17 -26 19.5 -72.5t-0.5 -89.5q0 -6 2 -17q13 -19 13 -43q0 -22 -10 -39t-27 -24q-16 -13 -17 -18q-5 -29 -17 -58.5t-23 -42.5q-5 -7 -5 -15t2.5 -22t2.5 -24q1 -33 16 -57t39.5 -36.5
t45.5 -18.5t45 -8q-110 -82 -244 -82z" />
    <glyph glyph-name="uniE639" unicode="&#xe639;" 
d="M377 485q-39 0 -67 -28t-28 -67t28 -66.5t67 -27.5t67 27.5t28 66.5t-28 67t-67 28zM860 631h-56l-253 194q-21 16 -43 0l-243 -193h-1l-1 -1h-99q-33 0 -56.5 -23.5t-23.5 -56.5v-535q0 -33 23.5 -56.5t56.5 -23.5h696q33 0 56.5 23.5t23.5 56.5v535q0 33 -23.5 56.5
t-56.5 23.5zM530 753l160 -122h-315zM873 98l-168 224q-10 18 -44 18q-17 0 -29.5 -4.5t-16.5 -9.5l-4 -4l-147 -227q-8 -15 -28 -15q-9 0 -16.5 4t-10.5 7l-3 4l-78 89q-19 26 -45 26q-12 0 -23.5 -7.5t-17.5 -14.5l-6 -7l-85 -106v461q0 11 8 19t19 8h668q11 0 19 -8
t8 -19v-438z" />
    <glyph glyph-name="uniE63A" unicode="&#xe63a;" 
d="M901 -33h-776q-10 0 -17.5 7.5t-7.5 17.5v269q0 11 7.5 18t17.5 7h776q11 0 18.5 -7t7.5 -18v-269q0 -10 -7.5 -17.5t-18.5 -7.5zM151 17h725v219h-725v-219zM901 305h-356q-10 0 -17.5 7.5t-7.5 17.5v437q0 10 7.5 17.5t17.5 7.5h356q11 0 18.5 -7.5t7.5 -17.5v-161
q0 -11 -7.5 -18t-18 -7t-18 7t-7.5 18v136h-306v-386h306v50q0 11 7.5 18t18 7t18 -7t7.5 -18v-76q0 -10 -7.5 -17.5t-18.5 -7.5zM479 305h-354q-10 0 -17.5 7.5t-7.5 17.5v187q0 10 7.5 17.5t17.5 7.5h354q11 0 18.5 -7.5t7.5 -17.5v-187q0 -10 -7.5 -17.5t-18.5 -7.5z
M151 356h303v135h-303v-135zM479 555h-354q-10 0 -17.5 7.5t-7.5 18.5v186q0 10 7.5 17.5t17.5 7.5h354q11 0 18.5 -7.5t7.5 -17.5v-186q0 -11 -7.5 -18.5t-18.5 -7.5zM151 606h303v136h-303v-136z" />
    <glyph glyph-name="uniE63B" unicode="&#xe63b;" 
d="M76 820zM851 709v-720h-581q-35 0 -59 24.5t-24 59t24 59t59 24.5h526v664h-554q-46 0 -78.5 -32.5t-32.5 -78.5v-664q0 -46 32.5 -78.5t78.5 -32.5h665v775h-56zM297 100h499v-55h-499v55z" />
    <glyph glyph-name="uniE63C" unicode="&#xe63c;" 
d="M512 720q-122 0 -225 -49t-163 -132.5t-60 -182.5q0 -84 44.5 -158t121.5 -125q2 -13 2 -25q0 -40 -27 -75.5t-69 -60.5q-13 -7 -10 -19t22 -12q88 4 160.5 29t133.5 86q35 -4 70 -4q122 0 225 48.5t163 132.5t60 183t-60 182.5t-163 132.5t-225 49zM320 300
q-27 0 -45.5 18.5t-18.5 45.5t18.5 45.5t45.5 18.5t45.5 -18.5t18.5 -45.5t-18.5 -45.5t-45.5 -18.5zM512.5 299q-26.5 0 -45 19t-18.5 45.5t18.5 45t45 18.5t45.5 -18.5t19 -45t-19 -45.5t-45.5 -19zM704.5 299q-26.5 0 -45 19t-18.5 45.5t18.5 45t45 18.5t45.5 -18.5
t19 -45t-19 -45.5t-45.5 -19z" />
    <glyph glyph-name="uniE63D" unicode="&#xe63d;" horiz-adv-x="1280" 
d="M1130 654l-258 -206v176q0 33 -23.5 56.5t-56.5 23.5h-640q-33 0 -56.5 -23.5t-23.5 -56.5v-480q0 -33 23.5 -56.5t56.5 -23.5h640q33 0 56.5 23.5t23.5 56.5v176l258 -206q25 -21 43.5 -12t18.5 42v480q0 33 -18.5 42t-43.5 -12z" />
    <glyph glyph-name="uniE63E" unicode="&#xe63e;" 
d="M946 -146h-868q0 11 -0.5 45t-0.5 48t2.5 43t7 47t14.5 41t24 42q66 92 174 111q11 2 21 -4q91 -61 192.5 -61t191.5 60q11 7 24 5q89 -17 148.5 -81t68.5 -153q2 -21 2 -44t-0.5 -53.5t-0.5 -45.5zM755.5 502q-0.5 -101 -72 -172.5t-171.5 -70.5q-101 1 -172 72t-71 173
q1 100 72 171t171 71q101 0 172.5 -71.5t71 -172.5z" />
    <glyph glyph-name="uniE63F" unicode="&#xe63f;" 
d="M510 460q-32 0 -54 -22.5t-22 -54t22 -53.5t54 -22t54 22t22 53.5t-22 54t-54 22.5zM510 621q-98 0 -167.5 -69.5t-69.5 -167.5t69.5 -168t167.5 -70t168 70t70 168t-70 167.5t-168 69.5zM510 272q-46 0 -78.5 33t-32.5 79t32.5 78.5t78.5 32.5t78.5 -32.5t32.5 -78.5
t-32.5 -79t-78.5 -33zM517.5 826q-89.5 0 -171.5 -35t-141 -94t-94 -141t-35 -171q0 -102 44 -193q7 -15 -33 -136q-9 -30 -13.5 -44.5t-7.5 -28.5t-2.5 -21t4.5 -12q7 -9 20 -9q16 0 83 25q95 35 122 35q7 0 9 -2q100 -56 215 -56q90 0 172 35t141 94.5t94 141t35 171
t-35 171.5t-94 141t-141 94t-171.5 35zM510 111q-113 0 -193 80t-80 193t80 193t193 80t193 -80t80 -193t-80 -193t-193 -80z" />
    <glyph glyph-name="uniE640" unicode="&#xe640;" 
d="M956 87q0 -24 -18.5 -41.5t-44.5 -17.5h-760q-27 0 -45.5 17.5t-18.5 41.5v177q0 15 10 30q-10 15 -10 30l127 354q0 25 18.5 42t44.5 17h507q26 0 44.5 -17t18.5 -42l127 -354q0 -15 -10 -30q10 -15 10 -30v-177zM766 560q0 25 -18.5 42t-44.5 17h-380q-27 0 -45.5 -17
t-18.5 -42l-63 -236h190v-117q0 -24 18.5 -41.5t44.5 -17.5h127q26 0 44.5 17.5t18.5 41.5v117h190zM321 442h382v-57h-382v57zM321 560h382v-57h-382v57zM321 560z" />
    <glyph glyph-name="uniE641" unicode="&#xe641;" 
d="M939 150q-269 110 -314 117q-41 6 -66 -30q-20 -30 -8 -59q6 -15 41 -60q-106 0 -201 37q-16 6 -36.5 23t-34 30.5t-37.5 38.5q-25 27 -38.5 40t-34.5 31t-39.5 25.5t-36.5 7.5q-30 0 -53 -21q-43 -38 -16 -119q15 -42 48 -91t76 -93t96.5 -74.5t102.5 -34.5h538
q14 0 23.5 10t9.5 23v168q0 22 -20 31v0zM504 855q-104 0 -193 -51.5t-140.5 -140.5t-51.5 -193q0 -42 10 -86h1v1q24 0 46 -8.5t46 -28t39 -34t43 -44.5q70 -74 95 -84q58 -22 122 -30q-3 5 -5 9q-18 46 12 90q31 46 84 46q7 0 15 -1q33 -5 182 -64q80 104 80 234
q0 104 -51.5 193t-140.5 140.5t-193 51.5v0zM613 582q14 0 24 -10t10 -24t-10 -23.5t-24 -9.5h-67v-34h67q14 0 24 -9.5t10 -23.5t-10 -24t-24 -10h-67v-67q0 -14 -9.5 -23.5t-23.5 -9.5t-24 9.5t-10 23.5v67h-67q-13 0 -23 10t-10 24t10 23.5t23 9.5h67v34h-67
q-13 0 -23 9.5t-10 23.5t10 24t23 10h54l-78 77q-9 10 -9 23.5t9.5 23.5t23.5 10t24 -10l77 -76l79 77q10 9 24 9t23.5 -10t9.5 -24t-10 -23l-80 -77h54zM613 582z" />
    <glyph glyph-name="uniE642" unicode="&#xe642;" 
d="M733 93q-29 0 -49.5 20.5t-20.5 49.5t20.5 49.5t49.5 20.5t49.5 -20.5t20.5 -49.5t-20.5 -49.5t-49.5 -20.5zM934 138v51l-60 9q-5 21 -16 40l34 50l-35 35l-49 -35q-19 11 -40 16l-10 60h-51l-9 -60q-20 -4 -40 -16l-49 35l-36 -35l35 -49q-12 -22 -17 -41l-59 -9v-51
l59 -10q5 -22 17 -40l-35 -49l35 -35l50 34q20 -12 40 -17l9 -59h51l10 60q21 5 40 16l49 -34l36 35l-35 49q11 18 16 40zM763 722q0 13 9.5 22.5t22.5 9.5h39q13 0 22.5 -9.5t9.5 -22.5v-278q0 -13 -9.5 -22.5t-22.5 -9.5h-39q-13 0 -22.5 9.5t-9.5 22.5v278zM733 399
q55 0 103 -24t82 -65v418q0 33 -19 55.5t-46 22.5h-78q-26 0 -45 -22.5t-19 -55.5v-330q14 1 22 1zM245 444q0 -13 -9.5 -22.5t-22.5 -9.5h-39q-13 0 -22.5 9.5t-9.5 22.5v278q0 13 9.5 22.5t22.5 9.5h39q13 0 22.5 -9.5t9.5 -22.5v-278zM194 62q-22 0 -37 15.5t-15 36.5
q0 22 15 37t37 15q21 0 36 -15t15 -37q0 -21 -15 -36.5t-36 -15.5zM232 806h-77q-27 0 -46 -22.5t-19 -55.5v-672q0 -32 19 -55t46 -23h77q27 0 46 23t19 55v672q0 33 -19 55.5t-46 22.5zM452 722q0 13 9.5 22.5t22.5 9.5h39q14 0 23 -9.5t9 -22.5v-278q0 -13 -9 -22.5
t-23 -9.5h-39q-13 0 -22.5 9.5t-9.5 22.5v278zM519 65q-10 -3 -15 -3q-21 0 -36.5 15.5t-15.5 36.5q0 20 13 34.5t32 16.5q0 62 30 114t80 83v366q0 33 -19 55.5t-45 22.5h-78q-27 0 -45.5 -22.5t-18.5 -55.5v-672q0 -32 18.5 -55t45.5 -23h78q17 0 31 11q-36 33 -55 76z
" />
    <glyph glyph-name="uniE643" unicode="&#xe643;" 
d="M878 732q-50 -24 -106 -26t-107.5 12.5t-105.5 36.5t-107.5 42.5t-105.5 33.5t-108 7.5t-106 -33.5q-10 -6 -8 -16q1 -11 2 -17q-1 -5 -1 -11l102 -813q2 -9 9.5 -15t16.5 -5l19 3q9 1 15 8.5t4 17.5l-44 350q45 19 98 19t98.5 -13t97.5 -25.5t98 -20.5t98 2.5t98 42.5
q6 5 6 11q10 66 29.5 197t29.5 196q1 9 -6.5 14.5t-15.5 1.5z" />
    <glyph glyph-name="uniE644" unicode="&#xe644;" 
d="M920 650q-1 21 -16.5 38.5t-35.5 21.5q-108 17 -168 39q-34 11 -71 32.5t-58 37.5l-21 15q-17 13 -40.5 12t-39.5 -14q-6 -6 -17.5 -16t-50.5 -32.5t-83 -35.5q-41 -17 -83 -27t-59 -12t-22 -2q-20 -2 -35.5 -19t-15.5 -38q-4 -145 1 -273q0 -65 29.5 -134t76 -124.5
t100.5 -100.5t108 -70t94 -25q42 0 90.5 18.5t99.5 56.5t94.5 90t76 127t43.5 159q3 57 3 276zM710 450l-232 -235q-8 -8 -19 -8.5t-20 6.5l-121 96q-17 13 -18.5 33.5t13.5 36t37 17t39 -11.5l57 -44l193 182q15 14 36 14t36 -14h-1v1l2 -2v1h-1q14 -15 14 -36t-15 -36z
" />
    <glyph glyph-name="uniE645" unicode="&#xe645;" 
d="M851 801h-573q-33 0 -56 -23t-23 -55v-52h-26q-32 0 -55 -23t-23 -56v-521q0 -43 30.5 -73.5t73.5 -30.5h626q43 0 73.5 30.5t30.5 73.5v652q0 32 -23 55t-55 23zM877 71q0 -21 -15.5 -36.5t-36.5 -15.5h-626q-21 0 -36.5 15.5t-15.5 36.5v521q0 11 8 19t18 8h26v-522
q0 -10 8 -18t18.5 -8t18 8t7.5 18v626q0 10 8 18t19 8h573q11 0 18.5 -8t7.5 -18v-652zM812 488h-209q-5 0 -9 -4t-4 -9t4 -9t9 -4h209q5 0 9 4t4 9t-4 9t-9 4zM812 566h-209q-5 0 -9 -3.5t-4 -9t4 -9.5t9 -4h209q5 0 9 4t4 9.5t-4 9t-9 3.5zM812 644h-209q-5 0 -9 -3.5
t-4 -9t4 -9.5t9 -4h209q5 0 9 4t4 9.5t-4 9t-9 3.5zM525 97h-208q-6 0 -9.5 -3.5t-3.5 -9t3.5 -9.5t9.5 -4h208q5 0 9 4t4 9.5t-4 9t-9 3.5zM525 175h-208q-6 0 -9.5 -3.5t-3.5 -9t3.5 -9.5t9.5 -4h208q5 0 9 4t4 9.5t-4 9t-9 3.5zM525 254h-208q-6 0 -9.5 -4t-3.5 -9.5
t3.5 -9t9.5 -3.5h208q5 0 9 3.5t4 9t-4 9.5t-9 4zM812 97h-209q-5 0 -9 -3.5t-4 -9t4 -9.5t9 -4h209q5 0 9 4t4 9.5t-4 9t-9 3.5zM812 175h-209q-5 0 -9 -3.5t-4 -9t4 -9.5t9 -4h209q5 0 9 4t4 9.5t-4 9t-9 3.5zM812 254h-209q-5 0 -9 -4t-4 -9.5t4 -9t9 -3.5h209q5 0 9 3.5
t4 9t-4 9.5t-9 4zM812 410h-495q-6 0 -9.5 -4t-3.5 -9t3.5 -9t9.5 -4h495q5 0 9 4t4 9t-4 9t-9 4zM812 332h-495q-6 0 -9.5 -4t-3.5 -9.5t3.5 -9t9.5 -3.5h495q5 0 9 3.5t4 9t-4 9.5t-9 4zM330 462h182q11 0 18.5 7.5t7.5 18.5v182q0 11 -7.5 19t-18.5 8h-182
q-11 0 -18.5 -8t-7.5 -19v-182q0 -11 7.5 -18.5t18.5 -7.5zM356 645h130v-131h-130v131z" />
    <glyph glyph-name="uniE646" unicode="&#xe646;" 
d="M843 797h-659q-35 0 -60 -25t-25 -60v-659q0 -35 25 -60t60 -25h659q35 0 60 25t25 60v659q0 35 -25 60t-60 25zM766 560v-2q-14 -93 -86 -155.5t-166.5 -62.5t-166.5 62.5t-86 155.5v2l-2 1q-20 12 -20 34q0 16 11.5 28t28 12t28 -12t11.5 -28q0 -18 -14 -30l-2 -2v-2
q13 -78 72.5 -129t139 -51t139 51t72.5 129v2l-2 2q-14 12 -14 30q0 16 11.5 28t28 12t28 -12t11.5 -28q0 -22 -20 -34z" />
    <glyph glyph-name="uniE647" unicode="&#xe647;" 
d="M62 768v-732h900v732h-900zM905 93h-786v561h786v-561zM569 543h282v-57h-282v57zM569 429h282v-57h-282v57zM569 318h168v-57h-168v57zM176 543h282v-282h-282v282z" />
    <glyph glyph-name="uniE648" unicode="&#xe648;" 
d="M888 754q44 -145 54 -180q10 -32 12 -36q6 -16 1 -39q-11 -51 -54 -78q-28 -17 -62 -15.5t-60 21.5q-33 25 -44 65q-1 1 -1 3h-1q-10 -42 -41.5 -66t-67.5 -24q-35 0 -68 23.5t-43 66.5q-29 -90 -112 -89q-82 0 -109 89q-8 -21 -9 -23q-25 -54 -81 -65q-59 -11 -102 34
q-28 29 -32 72v3v8l1 4q20 64 69 226h750zM162 12v5v346v6q25 -5 49 3v-307h601v307q28 -8 50 -3v-5v-349v-3h-700z" />
    <glyph glyph-name="uniE649" unicode="&#xe649;" 
d="M75 136h382v-191h109v191h383v55h-874v-55zM894 655q0 68 -48 116t-116 48h-437q-68 0 -116 -48t-48 -116v-410h765v410zM839 300h-655v355q0 45 32 77t77 32h437q45 0 77 -32t32 -77v-355zM457 464h82l82 136h-82zM375 600l-82 -136h82l82 136h-82z" />
    <glyph glyph-name="uniE64A" unicode="&#xe64a;" 
d="M657 758l257 -149q16 -9 16 -28h1v-585q0 -13 -9.5 -22.5t-23.5 -9.5q-10 0 -18 6l-239 138l-242 -140q-16 -9 -32 0l-258 149q-16 9 -16 28v585q0 13 9.5 22.5t23.5 9.5q9 0 18 -6l239 -138l242 140q15 9 32 0zM660 682v-511l206 -119v511zM621 171v511l-219 -127v-511z
M364 555l-206 119v-511l206 -119v511z" />
    <glyph glyph-name="uniE64B" unicode="&#xe64b;" 
d="M92 365l104 -79q16 -13 37 -13q3 0 7 1q24 3 39 21l120 146l119 -93q19 -15 43 -12q25 2 40 20l274 326q2 3 5 7l48 53q19 21 12 33t-37 8l-226 -34q-29 -4 -34.5 -20.5t16.5 -35.5l45 -39l-157 -187l-120 94q-19 14 -44 11.5t-40 -20.5l-120 -147l-58 44
q-18 14 -42 11.5t-39.5 -19.5t-13 -39.5t21.5 -36.5zM877 531l-266 -300q-14 -16 -58 18l-107 87q-17 14 -49 -22l-124 -141q-13 -15 -49 14l-109 80q-15 13 -26.5 1.5t-11.5 -37.5l1 -213q0 -14 10 -23.5t25 -9.5l805 -1q14 0 24.5 10t10.5 23q1 462 1 497t-25 40.5
t-52 -23.5z" />
    <glyph glyph-name="uniE64C" unicode="&#xe64c;" 
d="M614 300q-40 -32 -65.5 -46t-47.5 -14t-46 13t-62 42l-280 -247h790l-286 255q0 -1 -1 -1.5t-2 -1.5zM282 381q-134 104 -218 170v-466q0 -1 0.5 -2t0.5 -2l283 249q-12 10 -66 51zM957 74q3 7 3 11v485q-204 -158 -298 -232zM904 720h-784q-15 0 -35.5 -20.5
t-20.5 -35.5v-44q84 -67 248 -194q72 -55 109 -84q25 -19 34.5 -27t25 -14.5t21 -6t21 7t25.5 14.5l35 28q77 62 377 295v25q0 15 -20.5 35.5t-35.5 20.5zM904 720z" />
    <glyph glyph-name="uniE64D" unicode="&#xe64d;" 
d="M532 816q-121 0 -220.5 -57.5t-154.5 -158.5h43q53 82 141 129t191 47q106 0 196 -52.5t142 -142.5t52 -196t-52 -195.5t-142 -141t-196 -51.5q-99 0 -182 41t-136 121h-45q59 -91 155.5 -147t207.5 -56q117 0 216 57.5t156.5 156.5t57.5 216t-57.5 216t-156.5 156.5
t-216 57.5zM62 513h200v-40h-200v40zM62 393h200v-40h-200v40zM62 273h200v-40h-200v40zM642 113h-200q-47 0 -78.5 37.5t-31.5 85.5q0 52 54 90q7 -10 14 -19l3 -4t9 -9.5t14 -13t20 -15t26 -14t32 -11.5t38 -7h20q93 22 121 74q7 9 13 19q56 -39 56 -90q0 -49 -30.5 -86
t-79.5 -37zM542 273q-56 0 -112 55.5t-56 124.5q0 76 51 132t116 56t116 -56t51 -132q0 -69 -55.5 -124.5t-110.5 -55.5z" />
    <glyph glyph-name="uniE64E" unicode="&#xe64e;" 
d="M508 269l-446 290l452 277l446 -270zM508 35l-368 239l-78 -48l446 -290l452 297l-79 47zM508 207l-368 239l-78 -48l446 -290l452 297l-79 47z" />
    <glyph glyph-name="uniE64F" unicode="&#xe64f;" 
d="M385 326h-204q-31 0 -52.5 -21.5t-21.5 -52.5v-204q0 -31 21.5 -52.5t52.5 -21.5h204q31 0 52.5 22t21.5 52v204q0 31 -21.5 52.5t-52.5 21.5zM853 326h-204q-31 0 -52.5 -21.5t-21.5 -52.5v-204q0 -31 21.5 -52.5t52.5 -21.5h204q31 0 52.5 22t21.5 52v204
q0 31 -21.5 52.5t-52.5 21.5zM385 794h-204q-31 0 -52.5 -21.5t-21.5 -52.5v-204q0 -31 21.5 -52.5t52.5 -21.5h204q31 0 52.5 22t21.5 52v204q0 31 -21.5 52.5t-52.5 21.5zM853 794h-204q-31 0 -52.5 -21.5t-21.5 -52.5v-204q0 -31 21.5 -52.5t52.5 -21.5h204q31 0 52.5 22
t21.5 52v204q0 31 -21.5 52.5t-52.5 21.5z" />
    <glyph glyph-name="uniE650" unicode="&#xe650;" 
d="M852 513h-207q-36 0 -57 21t-21 57v207q0 12 -8.5 20.5t-20.5 8.5h-307q-36 0 -62 -26.5t-26 -62.5v-708q0 -36 26 -62.5t62 -26.5h562q36 0 62 26.5t26 62.5v454q0 12 -8.5 20.5t-20.5 8.5zM876 626l-196 196q-6 5 -17 5q-8 0 -15 -6t-7 -14v-157q0 -25 19 -44t44 -19
h157q8 0 14 7t6 15q0 11 -5 17z" />
    <glyph glyph-name="uniE651" unicode="&#xe651;" 
d="M686 540q15 0 34 -2q-23 104 -123 172.5t-228 68.5q-95 0 -175 -38.5t-127 -106t-47 -147.5q0 -135 140 -232l-35 -103l122 60q88 -17 122 -17q12 0 32 1q-11 37 -11 72q0 113 86 192.5t210 79.5zM499 633q20 0 31.5 -11.5t11.5 -31t-11.5 -31.5t-31.5 -12
q-21 0 -36.5 12.5t-15.5 31t15.5 30.5t36.5 12zM255 547q-20 0 -36 12.5t-16 31t16 30.5t36 12t32 -11.5t12 -31t-12 -31.5t-32 -12zM1004 272q0 68 -41.5 125.5t-109.5 91t-145 33.5q-124 0 -210 -73t-86 -176.5t86 -176.5t210 -73q36 0 104 17l96 -51l-26 86
q122 90 122 197zM612 316q-13 0 -24 10.5t-11 23.5t11 23.5t24 10.5q19 0 31.5 -10.5t12.5 -24t-12.5 -23.5t-31.5 -10zM804 316q-14 0 -24.5 10.5t-10.5 23.5t11 23.5t24 10.5q18 0 30.5 -10.5t12.5 -24t-12.5 -23.5t-30.5 -10z" />
    <glyph glyph-name="uniE652" unicode="&#xe652;" 
d="M918 214q-43 54 -159 88q-34 10 -71 17q-12 -27 -25 -58q39 -9 71 -24q40 -19 61 -45q17 -21 11 -32q-9 -16 -29 -30q-59 -43 -179 -56q-104 -12 -203 5q-54 10 -96 26q-51 21 -74 48q-11 14 -9 21q2 5 5 10q9 17 28 31q41 32 111 48q-16 37 -25 58q-115 -21 -183 -63
q-46 -29 -61 -63q-8 -18 -6 -39q6 -41 8 -49q12 -36 46.5 -66.5t72.5 -47.5q143 -62 344 -54q197 8 309 79q24 16 44 43.5t24 54.5q1 5 5 33q5 33 -20 65zM918 214zM512 122q8 18 21.5 47t48.5 107.5t62 144.5t48.5 134t21.5 99q0 81 -58 140t-141 59h-1h-1h-1h-1h-1h-2
q-82 0 -140.5 -59t-58.5 -140q0 -98 186 -496zM511.5 762q37.5 0 64 -26.5t26.5 -64.5t-26.5 -64.5t-64 -26.5t-64.5 26.5t-27 64.5t27 64.5t64.5 26.5z" />
    <glyph glyph-name="uniE653" unicode="&#xe653;" 
d="M407 648h105v-53h-105v53zM565 648h105v-53h-105v53zM828 648v-211h-158v52h106v106h-53v53h105zM354 489h105v-52h-105v52zM512 489h105v-52h-105v52zM248 595v-106h53v-52h-105v211h158v-53h-106zM407 331h105v-52h-105v52zM565 331h105v-52h-105v52zM828 331v-211
h-158v53h106v106h-53v52h105zM354 173h105v-53h-105v53zM512 173h105v-53h-105v53zM248 279v-106h53v-53h-105v211h158v-52h-106zM881 753h-738v-738h738v738zM934 806v-844h-844v844h844z" />
    <glyph glyph-name="uniE654" unicode="&#xe654;" 
d="M850 -88h-678q-28 0 -48 18.5t-20 44.5v475q0 27 20 45.5t48 18.5h678q28 0 48 -18.5t20 -45.5v-475q0 -26 -20 -44.5t-48 -18.5zM511 355q-42 0 -72 -27.5t-30 -67.5q0 -25 14 -47t37 -34v-91q0 -20 15 -34.5t36 -14.5t36 14.5t15 34.5v91q23 12 37 34t14 47
q0 40 -30 67.5t-72 27.5zM511 767q-84 0 -143.5 -55.5t-59.5 -134.5h-102q0 118 89.5 201.5t216 83.5t215.5 -83.5t89 -201.5h-101q0 79 -60 134.5t-144 55.5zM511 767z" />
    <glyph glyph-name="uniE655" unicode="&#xe655;" 
d="M804 738h-128q4 -13 4 -26q0 -32 -20 -56t-48 -24h-202q-30 0 -50.5 23.5t-20.5 56.5q0 13 4 26h-146q-37 0 -63 -26t-26 -63v-639q0 -37 26 -63.5t63 -26.5h607q37 0 63 26.5t26 63.5v639q0 37 -26 63t-63 26zM698 170h-392q-11 0 -19 8t-8 18.5t8 18.5t19 8h391
q11 0 19 -7.5t9 -18.5q0 -11 -8 -19t-19 -8zM698 330h-392q-11 0 -19 7.5t-8 18.5t8 19t19 8h391q11 0 19 -7.5t9 -19.5q0 -11 -8 -18.5t-19 -7.5zM698 473h-392q-11 0 -19 7.5t-8 18.5t8 19t19 8h392q11 0 19 -8t8 -19t-8 -18.5t-19 -7.5zM415 666h188q16 0 27.5 14
t11.5 32t-12 32t-28 14h-187q-17 0 -28.5 -14t-11.5 -32.5t11.5 -32t28.5 -13.5z" />
    <glyph glyph-name="uniE656" unicode="&#xe656;" horiz-adv-x="1025" 
d="M909 756h-198q-10 0 -17.5 7.5t-7.5 17.5t8 17.5t18 7.5h198q10 0 17 -7.5t7 -17.5t-7.5 -17.5t-17.5 -7.5zM909 533q-10 0 -17.5 7.5t-7.5 17.5v223q0 10 8.5 17.5t18 7.5t16.5 -7t7 -17v-224q0 -10 -7.5 -17.5t-17.5 -7.5zM909 806q10 0 17 -7q7 -6 7.5 -16.5
t-6.5 -18.5l-248 -273q-7 -7 -17 -7.5t-17.5 6.5t-8 17t6.5 18l248 273q7 8 18 8zM115 756h198q10 0 17.5 7.5t7.5 17.5t-8 17.5t-18 7.5h-198q-10 0 -17 -7.5t-7 -17.5t7.5 -17.5t17.5 -7.5zM115 533q10 0 17.5 7.5t7.5 17.5v223q0 10 -8.5 17.5t-18 7.5t-16.5 -7t-7 -17
v-224q0 -10 7.5 -17.5t17.5 -7.5zM115 806q-10 0 -17 -7q-7 -6 -7.5 -16.5t6.5 -18.5l248 -273q7 -7 17 -7.5t17.5 6.5t8 17t-6.5 18l-248 273q-7 8 -18 8zM909 12h-198q-10 0 -17.5 -7.5t-7.5 -17.5t8 -17.5t18 -7.5h198q10 0 17 7.5t7 17.5t-7.5 17.5t-17.5 7.5zM909 235
q-10 0 -17.5 -7.5t-7.5 -17.5v-223q0 -10 8.5 -17.5t18 -7.5t16.5 7t7 17v224q0 10 -7.5 17.5t-17.5 7.5zM909 -38q10 0 17 7q7 6 7.5 16.5t-6.5 18.5l-248 273q-7 7 -17 7.5t-17.5 -6.5t-8 -17t6.5 -18l248 -273q7 -8 18 -8zM115 12h198q10 0 17.5 -7.5t7.5 -17.5t-8 -17.5
t-18 -7.5h-198q-10 0 -17 7.5t-7 17.5t7.5 17.5t17.5 7.5zM115 235q10 0 17.5 -7.5t7.5 -17.5v-223q0 -10 -8.5 -17.5t-18 -7.5t-16.5 7t-7 17v224q0 10 7.5 17.5t17.5 7.5zM115 -38q-10 0 -17 7q-7 6 -7.5 16.5t6.5 18.5l248 273q7 7 17 7.5t17.5 -6.5t8 -17t-6.5 -18
l-248 -273q-7 -8 -18 -8z" />
    <glyph glyph-name="uniE657" unicode="&#xe657;" 
d="M512 832q-185 0 -316.5 -131.5t-131.5 -316.5t131.5 -316.5t316.5 -131.5t316.5 131.5t131.5 316.5t-131.5 316.5t-316.5 131.5zM671 320h-191q-13 0 -22.5 9.5t-9.5 22.5v255q0 13 9.5 22.5t22.5 9.5t22.5 -9.5t9.5 -22.5v-223h159q14 0 23 -9.5t9 -22.5t-9 -22.5
t-23 -9.5z" />
    <glyph glyph-name="uniE658" unicode="&#xe658;" horiz-adv-x="1025" 
d="M644 543h212q11 0 19 -8t8 -18.5t-9 -18.5t-19 -8h-212q-10 0 -17.5 8t-7.5 18.5t8 18.5t18 8zM644.5 781q10.5 0 18.5 -8t8 -18v-239q0 -10 -8.5 -18t-19 -8t-18 7.5t-7.5 17.5v239q0 10 8 18.5t18.5 8.5zM644 490q-10 0 -17 7q-9 7 -9.5 18t7.5 19l264 291q8 8 19 8.5
t19 -6.5t8.5 -18t-6.5 -19l-265 -291q-8 -9 -20 -9zM353 543h-212q-10 0 -18 -8t-8 -18.5t8.5 -18.5t19.5 -8h212q10 0 17.5 8t7.5 18.5t-8 18.5t-19 8zM353.5 781q-10.5 0 -18.5 -8t-8 -18v-239q0 -10 8.5 -18t19 -8t18 7.5t7.5 17.5v239q0 10 -8 18.5t-18.5 8.5zM353 490
q10 0 18 7t8.5 18t-6.5 19l-265 291q-7 8 -18 8.5t-19 -6.5t-8.5 -18t6.5 -19l265 -291q8 -9 19 -9zM644 225h212q11 0 19 8t8 18.5t-9 18.5t-19 8h-212q-10 0 -17.5 -8t-7.5 -18.5t8 -18.5t18 -8zM644 -13q11 0 19 8t8 18v239q0 10 -8.5 18t-19 8t-18 -7.5t-7.5 -17.5v-239
q0 -10 8 -18.5t18 -8.5zM644 278q-10 0 -17 -7q-9 -7 -9.5 -18t7.5 -19l264 -291q8 -8 19 -8.5t19 6.5t8.5 18t-6.5 19l-265 291q-8 9 -20 9zM353 225h-212q-10 0 -18 8t-8 18.5t8.5 18.5t19.5 8h212q10 0 17.5 -8t7.5 -18.5t-8 -18.5t-19 -8zM353 -13q-10 0 -18 8t-8 18
v239q0 10 8.5 18t19 8t18 -7.5t7.5 -17.5v-239q0 -10 -8 -18.5t-19 -8.5zM353 278q10 0 18 -7t8.5 -18t-6.5 -19l-265 -291q-7 -8 -18 -8.5t-19 6.5t-8.5 18t6.5 19l265 291q8 9 19 9z" />
    <glyph glyph-name="uniE659" unicode="&#xe659;" 
d="M614 397q3 -13 3 -26q0 -44 -30.5 -75t-74.5 -31t-74.5 31t-30.5 75q0 13 3 26h-265l77 329q3 13 -3 24t-16.5 14.5t-20.5 -3t-13 -18.5l-78 -333q-1 -6 0 -13h-1v-342q0 -22 16 -38.5t37 -16.5h738q21 0 37 16.5t16 38.5v342h-320zM933 410l-78 333q-2 6 -5 11t-8 8h-1
l-1 1q-5 3 -11 3h-1h-632q-11 0 -18.5 -8t-7.5 -18.5t7.5 -18.5t18.5 -8h609l75 -319q3 -13 13 -19t21 -3t16.5 14.5t2.5 23.5z" />
    <glyph glyph-name="uniE65A" unicode="&#xe65a;" 
d="M725 128q-35 0 -60 -25t-25 -60q0 -36 25 -61t60.5 -25t60.5 25t25 61q0 35 -25 60t-61 25zM43 811v-86h85l154 -324l-58 -104q-11 -19 -11 -41q0 -35 25 -60t61 -25h512v85h-494q-11 0 -11 11q0 3 1 5l39 69h317q24 0 44 12t31 32l153 276q5 12 5 22q0 17 -12.5 29.5
t-30.5 12.5h-631l-40 86h-139zM299 128q-36 0 -61 -25t-25 -60q0 -36 25 -61t60.5 -25t60.5 25t25 61q0 35 -25 60t-60 25z" />
    <glyph glyph-name="uniE65B" unicode="&#xe65b;" 
d="M288 630q0 -15 -10.5 -25.5t-25.5 -10.5h-90q-15 0 -25.5 10.5t-10.5 25.5v8q0 16 10.5 26.5t25.5 10.5h90q15 0 25.5 -10.5t10.5 -26.5v-8zM288 380q0 -15 -10.5 -25.5t-25.5 -10.5h-90q-15 0 -25.5 10.5t-10.5 25.5v8q0 16 10.5 26.5t25.5 10.5h90q15 0 25.5 -10.5
t10.5 -26.5v-8zM288 130q0 -15 -10.5 -25.5t-25.5 -10.5h-90q-15 0 -25.5 10.5t-10.5 25.5v8q0 16 10.5 26.5t25.5 10.5h90q15 0 25.5 -10.5t10.5 -26.5v-8zM798 814h-500q-41 0 -70.5 -29.5t-29.5 -70.5v-5h61q30 0 51 -21t21 -51v-6q0 -30 -21 -51t-51 -21h-61v-100h61
q30 0 51 -21t21 -51v-5q0 -30 -21 -51.5t-51 -21.5h-61v-100h61q30 0 51 -21t21 -51v-6q0 -30 -21 -51t-51 -21h-61v-5q0 -41 29.5 -70.5t70.5 -29.5h500q42 0 71 29.5t29 70.5v660q0 41 -29 70.5t-71 29.5zM810 464q0 -11 -7.5 -18.5t-18.5 -7.5h-145v-104h145
q11 0 18.5 -7.5t7.5 -18.5v-5q0 -11 -7.5 -18.5t-18.5 -7.5h-145v-146q0 -11 -7.5 -18.5t-18.5 -7.5h-6q-11 0 -18.5 7.5t-7.5 18.5v146h-145q-11 0 -18.5 7.5t-7.5 18.5v5q0 11 7.5 18.5t18.5 7.5h145v104h-145q-11 0 -18.5 7.5t-7.5 18.5v6q0 10 7.5 17.5t18.5 7.5h105
l-76 76q-7 8 -7 18.5t7 17.5l4 5q8 7 18.5 7t18.5 -7l104 -105l104 105q8 7 18.5 7t17.5 -7l5 -5q7 -7 7 -17.5t-7 -18.5l-76 -76h105q11 0 18.5 -7.5t7.5 -17.5v-6z" />
    <glyph glyph-name="uniE65C" unicode="&#xe65c;" horiz-adv-x="1028" 
d="M964 733q-7 22 -34 22h-230q-12 4 -20 -5t-8 -23q0 -13 10.5 -23.5t22.5 -10.5h90l-708 -337q-16 -8 -22 -22.5t-1 -28.5q12 -25 28 -17q6 0 11 6l833 399q17 9 24.5 20t3.5 20v0zM87 210h73v-197h-73v197zM351 255h73v-242h-73v242zM615 378h73v-365h-73v365zM880 474
h73v-461h-73v461z" />
    <glyph glyph-name="uniE65D" unicode="&#xe65d;" horiz-adv-x="1152" 
d="M737 157v46q47 27 80 86t33 123q0 55 -1.5 81.5t-10 66.5t-25.5 58t-50 32.5t-82 14.5t-82.5 -14.5t-50.5 -32.5t-25.5 -58t-9.5 -66.5t-1 -81.5q0 -64 32.5 -123t79.5 -86v-46q-144 -12 -240.5 -75.5t-96.5 -147.5h787q0 84 -96.5 147.5t-240.5 75.5zM350 135
q73 48 175 71q-20 23 -35 52q-41 74 -41 154q0 50 1 76.5t7 64t19 65.5q39 85 140 105q-12 54 -48.5 82.5t-111.5 28.5q-49 0 -82.5 -14.5t-50.5 -33t-25.5 -58t-9.5 -66t-1 -81.5q0 -64 32.5 -123t80.5 -86v-47q-145 -11 -241.5 -74.5t-96.5 -147.5h245q20 17 43 32z" />
    <glyph glyph-name="uniE65E" unicode="&#xe65e;" 
d="M512 832q-185 0 -316.5 -131.5t-131.5 -316.5t131.5 -316.5t316.5 -131.5t316.5 131.5t131.5 316.5t-131.5 316.5t-316.5 131.5zM512 0q-104 0 -192.5 51.5t-140 140t-51.5 192.5t51.5 192.5t140 140t192.5 51.5t192.5 -51.5t140 -140t51.5 -192.5t-51.5 -192.5
t-140 -140t-192.5 -51.5zM672 384h-160v224q0 13 -9.5 22.5t-22.5 9.5t-22.5 -9.5t-9.5 -22.5v-256q0 -13 9.5 -22.5t22.5 -9.5h192q13 0 22.5 9.5t9.5 22.5t-9.5 22.5t-22.5 9.5z" />
    <glyph glyph-name="uniE661" unicode="&#xe661;" 
d="M787.5 127q-30.5 0 -52 -22t-21.5 -53t21.5 -53t52 -22t52.5 22t22 53t-22 53t-52.5 22zM396.5 127q-30.5 0 -52 -22t-21.5 -53t21.5 -53t52 -22t52.5 22t22 53t-22 53t-52.5 22zM970 605.5q-29 41.5 -79 41.5h-623l-33 125q-3 10 -11 16t-18 6h-157q-12 0 -20.5 -8.5
t-8.5 -21t8.5 -21t20.5 -8.5h135l128 -475q10 -37 41 -61t70 -24h356q33 0 59.5 18.5t38.5 48.5l104 275q18 47 -11 88.5z" />
    <glyph glyph-name="uniE662" unicode="&#xe662;" 
d="M435 863q67 0 127.5 -50t82.5 -124q20 -66 -3 -128.5t-84 -111.5q-110 -86 -233 -14q-74 44 -100 120t3.5 153t106.5 124q43 25 100 31v0zM100 21q-1 0 -1.5 0.5t-1.5 0.5q-52 11 -59.5 23.5t8.5 61.5q35 108 44 133q37 104 150 110q53 3 250 1q21 0 25.5 -8.5
t-4.5 -27.5q-4 -10 -10 -20q-75 -120 -42 -252q6 -28 -1 -36t-35 -9h-58q-184 14 -265 23zM499 197q41 10 42 10q32 7 12 33q-9 11 -29 34q26 35 35 47q6 8 17.5 24t17.5 25q6 -5 20.5 -15.5t22.5 -16.5q31 -23 47 13q0 1 14 44q72 0 84 -1q5 0 10 -6.5t7 -13.5
q16 -44 26.5 -46.5t47.5 26.5q4 2 21 15q11 -14 35 -46t38 -51l-29 -23q-17 -18 -14.5 -27t25.5 -15q10 -3 41 -10v-95q-42 -12 -45 -13q-39 -14 -9 -42q3 -3 27 -22q-14 -14 -46 -44.5t-50 -48.5q-24 21 -28 25q-15 13 -27 8.5t-15 -24.5q-1 -3 -2 -10t-1 -9t-1 -8t-2 -10
h-94q0 1 -3.5 17t-5.5 25q-9 32 -37 16q-8 -4 -16.5 -9.5t-20 -12t-18.5 -11.5q-40 52 -73 95q1 1 12 10.5t16 14.5q29 27 -10 41q-5 2 -43 12v95h1zM866 151q0 52 -36 88t-88 35q-51 0 -86.5 -36.5t-35.5 -88t36.5 -87.5t88 -35.5t87 36.5t34.5 88v0zM866 151z" />
    <glyph glyph-name="uniE663" unicode="&#xe663;" horiz-adv-x="1171" 
d="M331 565q0 -100 70.5 -170.5t170.5 -70.5t170.5 70.5t70.5 170.5t-70.5 170.5t-170.5 70.5t-170.5 -70.5t-70.5 -170.5v0zM331 263q-100 0 -170.5 -70.5t-70.5 -170.5q0 -25 17.5 -42.5t42.5 -17.5h844q25 0 42.5 17.5t17.5 42.5q0 100 -70.5 170.5t-170.5 70.5h-482z
" />
  </font>
</defs>
</svg>
